<svg xmlns="http://www.w3.org/2000/svg" version="1.1" xmlns:xlink="http://www.w3.org/1999/xlink" xmlns:svgjs="http://svgjs.dev/svgjs" width="1440" height="560" preserveAspectRatio="none" viewBox="0 0 1440 560"><g mask="url(&quot;#SvgjsMask1060&quot;)" fill="none"><rect width="1440" height="560" x="0" y="0" fill="rgba(93, 99, 99, 1)"></rect><path d="M -559.3955452445075,29 C -415.4,125.4 -127.4,490.2 160.6044547554925,511 C 448.6,531.8 592.6,168.4 880.6044547554925,133 C 1168.6,97.6 1488.73,327.2 1600.6044547554925,334 C 1712.48,340.8 1472.12,200.4 1440,167" stroke="rgba(41, 55, 55, 1)" stroke-width="2"></path><path d="M -1239.2068271688172,191 C -1095.21,241 -807.21,463.8 -519.2068271688172,441 C -231.21,418.2 -87.21,67.8 200.7931728311828,77 C 488.79,86.2 672.95,472.6 920.7931728311828,487 C 1168.63,501.4 1336.16,216.6 1440,149" stroke="rgba(41, 55, 55, 1)" stroke-width="2"></path><path d="M -411.05781291822285,32 C -267.06,109 20.94,369.2 308.94218708177715,417 C 596.94,464.8 740.94,254.2 1028.942187081777,271 C 1316.94,287.8 1666.73,551.8 1748.942187081777,501 C 1831.15,450.2 1501.79,113.8 1440,17" stroke="rgba(41, 55, 55, 1)" stroke-width="2"></path><path d="M -247.77692488105265,181 C -103.78,239.6 184.22,490.4 472.22307511894735,474 C 760.22,457.6 904.22,103.4 1192.2230751189472,99 C 1480.22,94.6 1862.67,458.4 1912.2230751189472,452 C 1961.78,445.6 1534.44,144 1440,67" stroke="rgba(41, 55, 55, 1)" stroke-width="2"></path><path d="M -688.3741813971573,276 C -544.37,282.6 -256.37,356.2 31.6258186028427,309 C 319.63,261.8 463.63,-7.2 751.6258186028427,40 C 1039.63,87.2 1333.95,509 1471.6258186028426,545 C 1609.3,581 1446.33,285 1440,220" stroke="rgba(41, 55, 55, 1)" stroke-width="2"></path><path d="M -215.36261912985577,110 C -71.36,163 216.64,359.8 504.6373808701442,375 C 792.64,390.2 936.64,172 1224.6373808701442,186 C 1512.64,200 1901.56,470.8 1944.6373808701442,445 C 1987.71,419.2 1540.93,134.6 1440,57" stroke="rgba(41, 55, 55, 1)" stroke-width="2"></path><path d="M -573.593090572924,459 C -429.59,412.4 -141.59,226 146.40690942707596,226 C 434.41,226 578.41,503.8 866.406909427076,459 C 1154.41,414.2 1471.69,25.4 1586.406909427076,2 C 1701.13,-21.4 1469.28,274 1440,342" stroke="rgba(41, 55, 55, 1)" stroke-width="2"></path><path d="M -780.230265172177,436 C -636.23,376.6 -348.23,157.2 -60.23026517217703,139 C 227.77,120.8 371.77,355 659.769734827823,345 C 947.77,335 1223.72,70.4 1379.769734827823,89 C 1535.82,107.6 1427.95,368.2 1440,438" stroke="rgba(41, 55, 55, 1)" stroke-width="2"></path><path d="M -340.33964052057337,364 C -196.34,347 91.66,256.4 379.66035947942663,279 C 667.66,301.6 811.66,526.4 1099.6603594794267,477 C 1387.66,427.6 1751.59,31.4 1819.6603594794267,32 C 1887.73,32.6 1515.93,390.4 1440,480" stroke="rgba(41, 55, 55, 1)" stroke-width="2"></path><path d="M -364.94693772020065,388 C -220.95,318.4 67.05,12.6 355.05306227979935,40 C 643.05,67.4 787.05,490 1075.0530622797994,525 C 1363.05,560 1722.06,255.2 1795.0530622797994,215 C 1868.04,174.8 1511.01,302.2 1440,324" stroke="rgba(41, 55, 55, 1)" stroke-width="2"></path></g><defs><mask id="SvgjsMask1060"><rect width="1440" height="560" fill="#ffffff"></rect></mask></defs></svg>